FFmpeg version SVN-r25716, Copyright (c) 2000-2010 the FFmpeg developers  built on Nov 10 2010 12:23:18 with gcc 4.1.2 20080704 (Red Hat 4.1.2-48)  configuration: --enable-libmp3lame --enable-shared --disable-mmx --arch=x86_64  libavutil     50.33. 0 / 50.33. 0  libavcore      0.12. 1 /  0.12. 1  libavcodec    52.94. 4 / 52.94. 4  libavformat   52.84. 0 / 52.84. 0  libavdevice   52. 2. 2 / 52. 2. 2  libavfilter    1.59. 0 /  1.59. 0  libswscale     0.12. 0 /  0.12. 0Input #0, avi, from '/RAID10/data/converted_video_files/47668.avi':  Duration: 00:00:06.30, start: 0.000000, bitrate: 188746 kb/s    Stream #0.0: Video: msvideo1, rgb555le, 1024x1024, 20 tbr, 20 tbn, 20 tbc[buffer @ 0x1b6bf510] w:1024 h:1024 pixfmt:rgb555le[ffsink @ 0x1b6be710] auto-inserting filter 'auto-inserted scaler 0' between the filter 'src' and the filter 'out'[scale @ 0x1b6bd650] w:1024 h:1024 fmt:rgb555le -> w:1024 h:1024 fmt:yuv420p flags:0x4Output #0, flv, to '/RAID10/data/converted_video_files/47668.flv':  Metadata:    encoder         : Lavf52.84.0    Stream #0.0: Video: flv, yuv420p, 1024x1024, q=2-31, 600 kb/s, 1k tbn, 24 tbcStream mapping:  Stream #0.0 -> #0.0Press [q] to stop encodingframe=    6 fps=  0 q=9.4 size=     920kB time=0.29 bitrate=25811.9kbits/s    frame=   11 fps=  9 q=20.1 size=    1006kB time=0.54 bitrate=15231.7kbits/s    frame=   19 fps= 11 q=31.0 size=    1040kB time=0.96 bitrate=8885.6kbits/s    frame=   29 fps= 13 q=31.0 size=    1047kB time=1.46 bitrate=5882.2kbits/s    frame=   39 fps= 14 q=31.0 size=    1080kB time=1.96 bitrate=4517.5kbits/s    frame=   46 fps= 14 q=31.0 size=    1112kB time=2.29 bitrate=3973.0kbits/s    frame=   53 fps= 14 q=31.0 size=    1116kB time=2.62 bitrate=3484.7kbits/s    frame=   64 fps= 15 q=31.0 size=    1150kB time=3.21 bitrate=2935.6kbits/s    frame=   74 fps= 15 q=31.0 size=    1183kB time=3.71 bitrate=2613.7kbits/s    frame=   83 fps= 15 q=31.0 size=    1216kB time=4.12 bitrate=2414.7kbits/s    frame=   90 fps= 15 q=24.8 size=    1247kB time=4.50 bitrate=2269.7kbits/s    frame=  100 fps= 15 q=31.0 size=    1254kB time=5.00 bitrate=2053.8kbits/s    frame=  108 fps= 15 q=31.0 size=    1286kB time=5.38 bitrate=1959.2kbits/s    frame=  119 fps= 16 q=31.0 size=    1319kB time=5.96 bitrate=1814.2kbits/s    frame=  125 fps= 16 q=31.0 size=    1324kB time=6.25 bitrate=1735.3kbits/s    frame=  126 fps= 15 q=24.8 Lsize=    1351kB time=6.29 bitrate=1758.9kbits/s    video:1349kB audio:0kB global headers:0kB muxing overhead 0.161173%